PathFileType	4	(X/Y/Z)	/Users/itak/Documents/Research/Walk-IL/dataset/trc/00506_00183.trc
DataRate	CameraRate	NumFrames	NumMarkers	Units	OrigDataRate	OrigDataStartFrame	OrigNumFrames
100.000000	100.000000	4	53	mm	100.000000	210	421
Frame#	Time	RPSI			LPSI			L3			STRN			T10			C7			CLAV			RBAK			LBAK			LSHO			LUPA			LAEL			LAOL			LWTS			LWPS			LFRA			LIFD			LHPS			LHTS			RSHO			RUPA			RAEL			RAOL			RWTS			RWPS			RFRA			RIFD			RHTS			RHPS			RBHD			LFHD			RFHD			LBHD			LHIP			RHIP			RASI			LASI			LKNE			LTHI			LANK			LTIP			LTOE			LMT1			LMT5			LHEE			RKNE			RTHI			RANK			RTIP			RTOE			RMT1			RMT5			RHEE			
		X1	Y1	Z1	X2	Y2	Z2	X3	Y3	Z3	X4	Y4	Z4	X5	Y5	Z5	X6	Y6	Z6	X7	Y7	Z7	X8	Y8	Z8	X9	Y9	Z9	X10	Y10	Z10	X11	Y11	Z11	X12	Y12	Z12	X13	Y13	Z13	X14	Y14	Z14	X15	Y15	Z15	X16	Y16	Z16	X17	Y17	Z17	X18	Y18	Z18	X19	Y19	Z19	X20	Y20	Z20	X21	Y21	Z21	X22	Y22	Z22	X23	Y23	Z23	X24	Y24	Z24	X25	Y25	Z25	X26	Y26	Z26	X27	Y27	Z27	X28	Y28	Z28	X29	Y29	Z29	X30	Y30	Z30	X31	Y31	Z31	X32	Y32	Z32	X33	Y33	Z33	X34	Y34	Z34	X35	Y35	Z35	X36	Y36	Z36	X37	Y37	Z37	X38	Y38	Z38	X39	Y39	Z39	X40	Y40	Z40	X41	Y41	Z41	X42	Y42	Z42	X43	Y43	Z43	X44	Y44	Z44	X45	Y45	Z45	X46	Y46	Z46	X47	Y47	Z47	X48	Y48	Z48	X49	Y49	Z49	X50	Y50	Z50	X51	Y51	Z51	X52	Y52	Z52	X53	Y53	Z53	

211	2.1	64.06526947021484	958.168701171875	305.1556701660156	117.7710952758789	967.9168090820312	193.4932098388672	106.2852020263672	1045.66455078125	234.9017181396484	316.0638427734375	1175.343017578125	372.576171875	109.0575485229492	1153.226196289062	236.3229370117188	171.2247467041016	1373.184326171875	289.3119201660156	294.0925598144531	1274.993408203125	365.4415893554688	74.31143951416016	1257.41552734375	314.8362426757812	195.9398498535156	1326.060424804688	194.1058349609375	320.5612487792969	1363.39111328125	193.3379058837891	348.8687744140625	1232.145751953125	142.2566833496094	375.3291015625	1062.58642578125	161.2164459228516	296.7572937011719	998.0660400390625	150.8134918212891	455.2518615722656	1086.522338867188	334.0939636230469	479.3364562988281	995.0338134765625	328.1576538085938	415.0519714355469	1047.190063476562	213.6613006591797	533.7152709960938	1047.752197265625	460.1413879394531	517.0245971679688	1003.143188476562	368.7110900878906	516.957275390625	1068.26953125	380.3879699707031	133.3642730712891	1349.488525390625	444.0406188964844	71.64030456542969	1297.76220703125	456.5427856445312	-57.88907623291016	1090.275268554688	391.8116149902344	-62.84990692138672	1074.952026367188	326.5685424804688	41.74855804443359	913.3936157226562	492.8143005371094	-46.05907440185547	897.7186889648438	473.9393615722656	-64.68511962890625	1041.35009765625	404.0670471191406	4.262894153594971	747.9381713867188	492.0197143554688	18.20069313049316	813.0764770507812	520.59716796875	-45.47702026367188	827.2201538085938	492.0171508789062	138.3329925537109	1499.498657226562	383.7037353515625	295.0528564453125	1595.45947265625	305.3562622070312	235.9312286376953	1590.334106445312	417.8017272949219	201.4606781005859	1497.274780273438	236.98974609375	262.18798828125	890.2534790039062	111.1164169311523	117.0065002441406	860.9534912109375	461.8885803222656	231.4915313720703	904.3712158203125	437.5555114746094	323.4070129394531	916.3505249023438	213.4777526855469	189.0532379150391	468.9297180175781	184.966552734375	242.4855194091797	620.6685791015625	156.5474243164062	-57.94258499145508	104.2113494873047	111.7239303588867	115.9781265258789	330.8150329589844	160.3183898925781	47.46945953369141	32.55077743530273	254.9296417236328	-19.7207145690918	57.3057861328125	250.1525726318359	20.38958358764648	46.17385482788086	153.4270629882812	-119.2385177612305	137.3650360107422	142.3530426025391	295.8352661132812	527.747314453125	510.0594177246094	175.6425476074219	753.9982299804688	487.1799926757812	113.6963043212891	147.29931640625	454.8830261230469	280.5277709960938	398.2151184082031	513.216064453125	275.008544921875	68.30033874511719	534.197509765625	250.4265899658203	81.68846130371094	466.1020202636719	181.1946716308594	102.6371154785156	529.6260375976562	102.0020294189453	153.2066192626953	385.6299133300781	
212	2.11	83.09595489501953	966.2086791992188	317.4193115234375	136.8412475585938	975.2892456054688	206.0079498291016	125.5234451293945	1052.425415039062	245.5848693847656	332.34375	1182.678100585938	385.185791015625	126.8477401733398	1159.93896484375	244.5798950195312	187.2912445068359	1379.68115234375	298.644287109375	309.7057189941406	1282.309326171875	377.7197265625	90.75762939453125	1264.191040039062	322.1598510742188	214.5292510986328	1332.936889648438	203.7184600830078	338.9101867675781	1371.099975585938	206.5645751953125	370.9359436035156	1240.34130859375	157.2077178955078	398.4345092773438	1072.053955078125	179.1402130126953	321.8061218261719	1005.571533203125	165.6479034423828	469.2198181152344	1101.594604492188	355.8544616699219	495.8143005371094	1010.403564453125	352.8608703613281	435.8484497070312	1059.074096679688	233.6642303466797	540.6858520507812	1067.026123046875	487.4013366699219	530.9224243164062	1019.839660644531	395.58349609375	528.9338989257812	1085.576538085938	406.01416015625	147.405517578125	1356.162353515625	452.6954956054688	85.5369873046875	1305.651733398438	464.058837890625	-46.16108322143555	1101.808349609375	395.1112670898438	-49.00078964233398	1086.12548828125	329.9067077636719	46.10624313354492	923.1529541015625	500.9315795898438	-40.39260101318359	907.985107421875	477.4880065917969	-54.32935333251953	1052.917358398438	407.3493957519531	7.759003162384033	758.2882690429688	499.9651184082031	19.96833038330078	823.68408203125	528.7854614257812	-41.59711074829102	837.87548828125	496.4449157714844	153.4031982421875	1507.696166992188	393.5311584472656	310.9856262207031	1601.474609375	314.2388000488281	251.9958038330078	1597.767333984375	426.8275451660156	216.1580657958984	1503.7255859375	246.7486419677734	280.2251892089844	896.8595581054688	122.9565505981445	137.0709075927734	869.6790771484375	474.363525390625	251.0788421630859	912.5638427734375	449.1237487792969	342.0707702636719	922.5872802734375	225.028564453125	201.2958374023438	475.7344970703125	189.8583984375	257.1722412109375	627.215576171875	164.4862976074219	-48.73344802856445	112.5621490478516	113.7562103271484	127.1354675292969	338.51025390625	163.2928924560547	48.76706695556641	31.87397384643555	255.1427917480469	-14.82475471496582	60.74136734008789	251.1627960205078	24.79743766784668	48.0479736328125	154.015380859375	-107.6155853271484	148.6123504638672	145.3943023681641	316.6455688476562	535.265380859375	517.9853515625	196.3977813720703	762.3751831054688	498.637451171875	162.0536346435547	136.0656585693359	478.0411376953125	309.4447021484375	402.1826477050781	525.5363159179688	331.705810546875	70.6558837890625	554.9635620117188	304.4072265625	81.7681884765625	487.2377319335938	234.8883514404297	97.84645843505859	552.0816650390625	148.2439270019531	140.0804443359375	408.8970031738281	
213	2.12	102.3691940307617	974.0454711914062	329.9166870117188	155.9795684814453	982.5255737304688	218.6801910400391	144.7542419433594	1059.024536132812	256.760498046875	348.8179931640625	1189.763061523438	397.5263366699219	144.4342956542969	1166.41552734375	253.2664947509766	203.2816314697266	1385.927001953125	308.2840270996094	325.4401245117188	1289.354248046875	389.8285827636719	107.2176055908203	1270.724853515625	330.1531066894531	232.6832733154297	1339.619750976562	213.6200408935547	356.7123413085938	1378.50146484375	219.5779266357422	392.1033325195312	1248.373413085938	171.6657409667969	420.4932250976562	1081.123657226562	196.0014190673828	345.6576538085938	1013.01416015625	179.662353515625	482.8133544921875	1115.242309570312	375.9056396484375	511.4256591796875	1024.402954101562	375.4654846191406	455.6673889160156	1070.233154296875	252.2481079101562	547.3623046875	1084.053955078125	512.1034545898438	544.0900268554688	1034.893676757812	420.0938720703125	540.4955444335938	1101.065307617188	429.489501953125	161.9492034912109	1362.470336914062	461.789794921875	99.98897552490234	1313.041137695312	472.2491455078125	-33.39546203613281	1112.566162109375	399.1364135742188	-34.26225280761719	1096.470825195312	334.0326232910156	51.99805450439453	932.3931884765625	509.3651733398438	-33.03023910522461	917.457275390625	481.4216003417969	-42.77987670898438	1063.661376953125	411.3321228027344	13.11882019042969	768.0409545898438	508.4705505371094	23.49396514892578	833.8040161132812	537.3568115234375	-35.89487838745117	847.8297119140625	501.2925415039062	168.521240234375	1515.470947265625	403.3880310058594	326.8208312988281	1607.195556640625	323.066162109375	268.0392150878906	1604.87255859375	435.8167724609375	230.8082580566406	1509.793334960938	256.505126953125	298.4075927734375	903.4866943359375	134.8251800537109	157.5036163330078	878.04345703125	486.9203186035156	270.9527893066406	920.4564819335938	460.6301879882812	360.8397521972656	928.8287963867188	236.5820617675781	215.1970672607422	482.327880859375	195.5227203369141	272.9436950683594	633.6949462890625	172.7886199951172	-38.21316528320312	121.4955520629883	116.0957107543945	139.8979339599609	346.1513671875	167.0241241455078	50.82541656494141	31.20339012145996	255.3968200683594	-8.996054649353027	64.65321350097656	252.198486328125	30.12215042114258	50.61903381347656	154.7398071289062	-94.631103515625	160.199462890625	148.7593994140625	336.0958251953125	541.4669189453125	525.812744140625	217.1606140136719	770.0487670898438	510.0716247558594	209.8998413085938	126.0123672485352	499.9057312011719	336.8663330078125	405.3777465820312	537.3160400390625	386.5780944824219	73.48556518554688	574.009765625	356.8074645996094	82.66474914550781	506.7462463378906	287.4067993164062	93.88964080810547	572.9697265625	194.123779296875	128.3787231445312	430.967041015625	
214	2.13	121.838623046875	981.4356689453125	342.6270446777344	175.1049499511719	989.3941040039062	231.4515228271484	163.8608551025391	1065.259033203125	268.3659973144531	365.4566040039062	1196.390869140625	409.5619506835938	161.7705078125	1172.44140625	262.4313049316406	219.1833953857422	1391.73095703125	318.2102661132812	341.28564453125	1295.9248046875	401.7261962890625	123.6368637084961	1276.806762695312	338.8579711914062	250.3376617431641	1345.889892578125	223.7853393554688	373.9489135742188	1385.352661132812	232.2793121337891	412.2982177734375	1255.938720703125	185.5202941894531	441.5031127929688	1089.46484375	211.7274322509766	368.2330322265625	1020.065368652344	192.8600463867188	496.3493041992188	1127.144897460938	394.2345275878906	526.4791870117188	1036.651123046875	395.9097900390625	474.6190490722656	1080.303466796875	269.3478393554688	554.3576049804688	1098.498657226562	534.2290649414062	556.9393920898438	1047.930908203125	442.1585693359375	552.0713500976562	1114.381469726562	450.7597961425781	176.966796875	1368.234497070312	471.3263854980469	114.952522277832	1319.74462890625	481.1310119628906	-19.66167831420898	1122.260498046875	404.0534973144531	-18.76243209838867	1105.72412109375	339.089599609375	59.53714752197266	940.7728271484375	518.1840209960938	-23.96953964233398	925.8770751953125	485.9882202148438	-30.08655738830566	1073.289428710938	416.1885986328125	20.26260375976562	776.8505859375	517.582275390625	28.8709659576416	843.0518188476562	546.3729858398438	-28.37977981567383	856.797607421875	506.7746276855469	183.7037353515625	1522.592163085938	413.2651672363281	342.5513000488281	1612.445190429688	331.8416748046875	284.0501708984375	1611.446899414062	444.7681579589844	245.4457702636719	1515.278930664062	266.2520141601562	316.6598815917969	909.92236328125	146.6556701660156	178.2662811279297	885.783447265625	499.5130615234375	291.0773010253906	927.8268432617188	472.031494140625	379.649169921875	934.8937377929688	248.0647888183594	230.8417816162109	488.412109375	202.0809478759766	289.7994995117188	639.8663330078125	181.5091247558594	-26.43474388122559	130.97705078125	118.7353744506836	154.3120574951172	353.4814453125	171.6259765625	53.89475250244141	30.66880226135254	255.6308746337891	-2.114527702331543	69.07986450195312	253.2391204833984	36.48282623291016	54.0399169921875	155.5726470947266	-80.42513275146484	171.9908752441406	152.4320526123047	354.4369812011719	546.2565307617188	533.7633056640625	237.9237823486328	776.8042602539062	521.492919921875	256.6825866699219	117.2671432495117	520.2359619140625	362.8604125976562	407.7482299804688	548.6211547851562	439.0796508789062	76.53810119628906	591.216796875	407.0921630859375	84.21534729003906	524.4885864257812	338.1800231933594	90.67726898193359	592.0935668945312	239.1116485595703	118.298095703125	451.5799560546875	
